<svg width="14" height="14" viewBox="0 0 14 14" fill="none" xmlns="http://www.w3.org/2000/svg">
<path fill-rule="evenodd" clip-rule="evenodd" d="M1.84142 5.39224C3.18876 8.31607 5.58266 10.6331 8.55418 11.8895L8.56321 11.8932L9.13803 12.1482C9.49308 12.3061 9.89181 12.3373 10.2672 12.2366C10.6426 12.136 10.9719 11.9096 11.1996 11.5955L12.1581 10.2732C12.1863 10.2343 12.1984 10.1861 12.192 10.1385C12.1855 10.0909 12.161 10.0476 12.1235 10.0175L10.4502 8.67124C10.4304 8.65536 10.4077 8.64363 10.3833 8.63675C10.3589 8.62988 10.3333 8.62799 10.3081 8.63122C10.283 8.63444 10.2587 8.6427 10.2368 8.65551C10.215 8.66832 10.1959 8.6854 10.1808 8.70574L9.52927 9.58174C9.45251 9.68509 9.34254 9.7591 9.21769 9.79145C9.09283 9.82379 8.96063 9.81251 8.8431 9.75949C6.61684 8.75416 4.83323 6.9762 3.82471 4.75699C3.77152 4.63984 3.7602 4.50805 3.79265 4.38359C3.8251 4.25913 3.89934 4.14951 4.00302 4.07299L4.88105 3.42274C4.90145 3.40771 4.9186 3.38872 4.93144 3.36691C4.94429 3.34511 4.95258 3.32093 4.95582 3.29585C4.95905 3.27077 4.95716 3.24529 4.95026 3.22095C4.94336 3.19662 4.93159 3.17393 4.91566 3.15424L3.56589 1.48624C3.53568 1.44884 3.49224 1.42441 3.44451 1.41799C3.39677 1.41157 3.34839 1.42365 3.30932 1.45174L1.97535 2.41174C1.65814 2.63982 1.42995 2.97035 1.32955 3.34717C1.22915 3.72398 1.26274 4.12382 1.4246 4.47874L1.84142 5.39224ZM8.10877 12.923C4.88038 11.5565 2.27976 9.0382 0.815927 5.86099L0.814422 5.85949L0.397602 4.94449C0.127813 4.35307 0.0717517 3.68678 0.238944 3.05882C0.406136 2.43086 0.786268 1.87997 1.31476 1.49974L2.64873 0.539741C2.92194 0.343181 3.26035 0.25851 3.5943 0.303155C3.92825 0.347801 4.23232 0.518366 4.44392 0.779741L5.79444 2.44849C5.9059 2.58617 5.98827 2.74489 6.03663 2.91511C6.08498 3.08533 6.09832 3.26354 6.07583 3.43903C6.05334 3.61451 5.99549 3.78366 5.90576 3.9363C5.81603 4.08893 5.69627 4.22191 5.55368 4.32724L5.04959 4.69924C5.90187 6.3465 7.24779 7.68816 8.90028 8.53774L9.27421 8.03524C9.37988 7.89321 9.51324 7.77393 9.6663 7.68455C9.81935 7.59517 9.98895 7.53755 10.1649 7.51514C10.3409 7.49272 10.5195 7.50598 10.6902 7.55411C10.8609 7.60225 11.0201 7.68426 11.1582 7.79524L12.8322 9.14149C13.0946 9.35245 13.2659 9.6557 13.3107 9.98877C13.3555 10.3218 13.2704 10.6593 13.073 10.9317L12.1145 12.2547C11.735 12.7782 11.1865 13.1555 10.5609 13.3234C9.9353 13.4912 9.27083 13.4394 8.67908 13.1765L8.10877 12.923Z" fill="#F9F6EF"/>
</svg>
