<svg width="31" height="30" viewBox="0 0 31 30" fill="none" xmlns="http://www.w3.org/2000/svg">
<path d="M4.64819 0C2.6162 0 0.581659 1.53232 0.581659 4.59696L4.64819 12.7693L8.71219 4.59696C8.71219 1.53232 6.68019 0 4.64819 0ZM22.5742 2.49002C22.1361 2.50854 21.7106 2.59218 21.355 2.66879L21.5963 3.7925C21.9519 3.71269 22.3202 3.66225 22.6314 3.63926L22.5742 2.49002ZM4.64819 2.55387C5.77214 2.55387 6.68019 3.46879 6.68019 4.59696C6.68019 5.72705 5.77214 6.64006 4.64819 6.64006C3.52615 6.64006 2.6162 5.72705 2.6162 4.59696C2.6162 3.46879 3.52615 2.55387 4.64819 2.55387ZM23.8379 2.56664L23.6474 3.69673C23.9585 3.76249 24.2697 3.84485 24.5427 4.00957L25.0952 3.0008C24.7078 2.79329 24.276 2.60686 23.8379 2.56664ZM20.1866 2.99441C19.7993 3.14637 19.4119 3.28236 19.0817 3.4158L19.5326 4.46927C19.8818 4.31987 20.2501 4.18962 20.5613 4.07981L20.1866 2.99441ZM26.1366 3.84996L25.2666 4.59696C25.4952 4.86001 25.673 5.18435 25.8127 5.44613L26.8351 4.92897C26.6192 4.51077 26.4287 4.19409 26.1366 3.84996ZM18.0213 3.90742C17.6339 4.10598 17.3164 4.28284 16.9735 4.4565L17.5323 5.46528C17.8625 5.27374 18.2245 5.08858 18.5166 4.94174L18.0213 3.90742ZM15.9702 5.05028C15.6337 5.2482 15.3035 5.44613 14.9796 5.6632L15.6019 6.62091C15.9131 6.4166 16.2369 6.22506 16.5544 6.03352L15.9702 5.05028ZM27.2288 6.19313C26.8541 6.25698 26.4731 6.30167 26.0985 6.34636C26.1239 6.6656 26.1048 7.01037 26.0413 7.27853L27.1526 7.5403C27.2161 7.0806 27.2732 6.60814 27.2288 6.19313ZM14.0144 6.30167C13.6969 6.51875 13.3858 6.74221 13.0683 6.95929L13.7287 7.89784C14.0335 7.67438 14.3446 7.46368 14.6558 7.2466L14.0144 6.30167ZM12.1348 7.64884C11.8173 7.87869 11.4871 8.13407 11.2141 8.34477L11.9062 9.25778C12.2555 9.00239 12.4968 8.81085 12.8143 8.57462L12.1348 7.64884ZM25.6603 8.15961C25.4698 8.45331 25.2476 8.747 25.0253 8.97047L25.8572 9.76855C26.1302 9.44293 26.4223 9.11093 26.6255 8.77892L25.6603 8.15961ZM10.306 9.05985C9.99488 9.30247 9.68373 9.55147 9.41069 9.78132L10.1346 10.6688C10.433 10.4198 10.7378 10.1644 11.0172 9.96009L10.306 9.05985ZM24.2379 9.7047C23.9458 9.94094 23.641 10.1708 23.3616 10.3623L24.0157 11.3073C24.3522 11.0774 24.6824 10.8284 24.9682 10.5986L24.2379 9.7047ZM8.52804 10.5283C8.22959 10.7709 7.94384 11.0263 7.65174 11.2753L8.39469 12.15C8.68044 11.901 8.96619 11.652 9.25829 11.4094L8.52804 10.5283ZM22.4282 10.9753C22.1043 11.1668 21.7678 11.3647 21.463 11.5307L22.0091 12.5459C22.352 12.3352 22.7393 12.15 23.0251 11.9585L22.4282 10.9753ZM6.78179 12.0351C6.49604 12.2905 6.21664 12.5459 5.93089 12.8077L6.69924 13.6632C6.97864 13.4078 7.26439 13.1524 7.54379 12.897L6.78179 12.0351ZM20.466 12.0606C20.1295 12.2266 19.7929 12.399 19.4564 12.565L19.9453 13.5994C20.339 13.4078 20.6311 13.2482 20.9867 13.0822L20.466 12.0606ZM18.434 13.0439C18.0848 13.2035 17.7482 13.3567 17.3926 13.5036L17.8562 14.5571C18.2054 14.4038 18.5547 14.2442 18.9039 14.0846L18.434 13.0439ZM5.09269 13.5994C4.76884 13.8867 4.54342 14.1101 4.24814 14.3974L5.05459 15.2274C5.35304 14.9401 5.59434 14.6911 5.87374 14.4485L5.09269 13.5994ZM16.3512 13.9697C16.002 14.1165 15.6527 14.2697 15.3035 14.4166L15.748 15.4828C16.1036 15.336 16.4528 15.1828 16.8021 15.0295L16.3512 13.9697ZM14.2494 14.8635C13.9001 15.0168 13.5509 15.17 13.1953 15.3104L13.6398 16.3767C13.989 16.2298 14.3446 16.0766 14.6939 15.9298L14.2494 14.8635ZM25.9842 15.3232C23.9522 15.3232 21.9202 16.8555 21.9202 19.9202L25.9842 28.0926L30.0482 19.9202C30.0482 16.8555 28.0162 15.3232 25.9842 15.3232ZM12.1412 15.7574C11.7792 15.9234 11.3982 16.0766 11.0871 16.2107L11.5379 17.2705C11.9126 17.1109 12.2682 16.9577 12.5857 16.8172L12.1412 15.7574ZM10.033 16.664C9.69008 16.8236 9.29004 17.0024 8.98524 17.1428L9.45514 18.1899C9.82978 18.0239 10.16 17.8579 10.4902 17.7175L10.033 16.664ZM7.93749 17.6217C7.58189 17.7941 7.21359 17.9729 6.89609 18.1325L7.41044 19.1604C7.75334 18.9816 8.10894 18.8156 8.42009 18.6624L7.93749 17.6217ZM25.9842 17.8771C27.1081 17.8771 28.0162 18.7901 28.0162 19.9202C28.0162 21.0503 27.1081 21.9633 25.9842 21.9633C24.8602 21.9633 23.9522 21.0503 23.9522 19.9202C23.9522 18.7901 24.8602 17.8771 25.9842 17.8771ZM5.86739 18.6624C5.53084 18.8476 5.19429 19.0391 4.85139 19.237L5.42289 20.233C5.74674 20.0415 6.07694 19.8627 6.40714 19.6839L5.86739 18.6624ZM3.85444 19.8563C3.49821 20.0606 3.15404 20.3352 2.8575 20.5331L3.54964 21.4525C3.86524 21.2227 4.20496 20.9864 4.47674 20.8204L3.85444 19.8563ZM1.9558 21.2993C1.651 21.5802 1.35064 21.9058 1.1176 22.1804L1.98755 22.9274C2.23202 22.6273 2.44475 22.4038 2.7305 22.1484L1.9558 21.2993ZM15.7861 21.3823L15.8877 22.5251C16.2179 22.4677 16.5481 22.506 16.8783 22.557L17.0751 21.427C16.656 21.3631 16.2115 21.3184 15.7861 21.3823ZM13.4239 22.0207L13.8557 23.087C14.1859 22.9401 14.5288 22.8252 14.878 22.7167C14.7574 22.3527 14.6685 21.9824 14.5732 21.6121C14.1732 21.727 13.7731 21.8803 13.4239 22.0207ZM18.3451 21.9633L17.6974 22.9082C17.9641 23.1061 18.2245 23.3168 18.434 23.5786L19.2976 22.8252C18.9738 22.4932 18.7261 22.1804 18.3451 21.9633ZM12.3444 22.5379C11.9951 22.7167 11.6586 22.921 11.322 23.1189L11.8999 24.1085C12.2301 23.9298 12.5539 23.7191 12.8778 23.5467L12.3444 22.5379ZM0.419734 23.2402C0.227965 23.6552 0.0723899 24.1021 0 24.498L1.12395 24.6959C1.19253 24.332 1.29095 24.0702 1.4351 23.7574C1.08648 23.6041 0.753744 23.419 0.419734 23.2402ZM10.3314 23.7382C10.0076 23.9489 9.69008 24.1596 9.37259 24.3767L10.0076 25.3344C10.3251 25.1237 10.6362 24.9066 10.9537 24.6959L10.3314 23.7382ZM20.0279 23.8148L19.069 24.4405C19.2722 24.747 19.4691 25.0662 19.6532 25.3918L20.6438 24.8172C20.4216 24.4597 20.2628 24.1404 20.0279 23.8148ZM8.42644 25.0279C8.10894 25.2386 7.79144 25.4429 7.48029 25.6664L8.11529 26.6241C8.42009 26.4006 8.74394 26.1899 9.06779 25.9728L8.42644 25.0279ZM1.13665 25.6345C0.768984 25.7111 0.398144 25.7749 0.028575 25.8452C0.0952499 26.2921 0.273685 26.7262 0.434974 27.071L1.46685 26.573C1.32905 26.2538 1.19824 25.9218 1.13665 25.6345ZM21.209 25.8132L20.2184 26.3879C20.4152 26.7326 20.6438 27.1029 20.828 27.3966L21.7868 26.7773C21.5709 26.4389 21.3868 26.1197 21.209 25.8132ZM6.54049 26.2921C6.22299 26.49 5.91184 26.6815 5.58164 26.8667L6.14679 27.8691C6.48334 27.6712 6.81989 27.4732 7.14374 27.2626L6.54049 26.2921ZM2.01295 27.3328L1.2319 28.1756C1.58496 28.5139 2.02057 28.7374 2.49555 28.8396L2.74955 27.7222C2.46761 27.6648 2.20408 27.5243 2.01295 27.3328ZM4.61644 27.3519C4.29831 27.4988 3.96811 27.6137 3.62584 27.6839L3.88619 28.8076C4.29386 28.7246 4.6774 28.5714 5.06094 28.4118L4.61644 27.3519ZM22.4155 27.6584L21.5328 28.3799C21.8059 28.7183 22.1424 29.0439 22.4345 29.2737L23.1394 28.3671C22.86 28.15 22.6187 27.8883 22.4155 27.6584ZM23.9458 28.7757L23.6601 29.893C24.1617 29.9952 24.5364 30.0271 25.0063 29.976L24.8666 28.8332C24.5554 28.8843 24.2506 28.8523 23.9458 28.7757Z" fill="#666666"/>
</svg>
