<svg width="14" height="16" viewBox="0 0 14 16" fill="none" xmlns="http://www.w3.org/2000/svg">
<path d="M0.728271 6.60725C0.728271 3.2345 3.42331 0.5 6.74733 0.5C10.0714 0.5 12.7664 3.2345 12.7664 6.60725C12.7664 9.95375 10.8456 13.8597 7.84807 15.2555C7.50354 15.4163 7.12776 15.4997 6.74733 15.4997C6.36691 15.4997 5.99113 15.4163 5.6466 15.2555C2.6491 13.859 0.728271 9.9545 0.728271 6.608V6.60725Z" stroke="#F9F6EF" stroke-width="0.9375"/>
<path d="M6.74738 8.75C7.99397 8.75 9.00453 7.74264 9.00453 6.5C9.00453 5.25736 7.99397 4.25 6.74738 4.25C5.50079 4.25 4.49023 5.25736 4.49023 6.5C4.49023 7.74264 5.50079 8.75 6.74738 8.75Z" stroke="#F9F6EF" stroke-width="0.9375"/>
</svg>
