<svg width="20" height="20" viewBox="0 0 20 20" fill="none" xmlns="http://www.w3.org/2000/svg">
<path d="M10.8565 1.6665C11.794 1.669 12.2698 1.674 12.6807 1.68567L12.8423 1.6915C13.029 1.69817 13.2132 1.7065 13.4357 1.7165C14.3223 1.75817 14.9273 1.89817 15.4582 2.104C16.0082 2.31567 16.4715 2.60234 16.9348 3.06484C17.3586 3.48142 17.6865 3.98533 17.8957 4.5415C18.1015 5.07234 18.2415 5.67734 18.2832 6.56484C18.2932 6.7865 18.3015 6.97067 18.3082 7.15817L18.3132 7.31984C18.3257 7.72984 18.3307 8.20567 18.3323 9.14317L18.3332 9.76484V10.8565C18.3352 11.4643 18.3288 12.0722 18.314 12.6798L18.309 12.8415C18.3023 13.029 18.294 13.2132 18.284 13.4348C18.2423 14.3223 18.1007 14.9265 17.8957 15.4582C17.6871 16.0147 17.3591 16.5187 16.9348 16.9348C16.5181 17.3584 16.0143 17.6863 15.4582 17.8957C14.9273 18.1015 14.3223 18.2415 13.4357 18.2832C13.2379 18.2925 13.0401 18.3008 12.8423 18.3082L12.6807 18.3132C12.2698 18.3248 11.794 18.3307 10.8565 18.3323L10.2348 18.3332H9.144C8.53588 18.3353 7.92777 18.3289 7.31983 18.314L7.15816 18.309C6.96034 18.3015 6.76256 18.2929 6.56483 18.2832C5.67816 18.2415 5.07316 18.1015 4.5415 17.8957C3.98539 17.6868 3.48168 17.3589 3.06566 16.9348C2.64153 16.5184 2.31335 16.0145 2.104 15.4582C1.89816 14.9273 1.75816 14.3223 1.7165 13.4348C1.70721 13.2371 1.69888 13.0393 1.6915 12.8415L1.68733 12.6798C1.67197 12.0722 1.66503 11.4643 1.6665 10.8565V9.14317C1.66417 8.53534 1.67028 7.9275 1.68483 7.31984L1.69066 7.15817C1.69733 6.97067 1.70566 6.7865 1.71566 6.56484C1.75733 5.67734 1.89733 5.07317 2.10316 4.5415C2.31242 3.98476 2.64126 3.48069 3.0665 3.06484C3.48241 2.64107 3.98578 2.31316 4.5415 2.104C5.07316 1.89817 5.67733 1.75817 6.56483 1.7165C6.7865 1.7065 6.9715 1.69817 7.15816 1.6915L7.31983 1.6865C7.92749 1.6717 8.53533 1.66531 9.14316 1.66734L10.8565 1.6665ZM9.99983 5.83317C8.89476 5.83317 7.83495 6.27216 7.05355 7.05356C6.27215 7.83496 5.83316 8.89477 5.83316 9.99984C5.83316 11.1049 6.27215 12.1647 7.05355 12.9461C7.83495 13.7275 8.89476 14.1665 9.99983 14.1665C11.1049 14.1665 12.1647 13.7275 12.9461 12.9461C13.7275 12.1647 14.1665 11.1049 14.1665 9.99984C14.1665 8.89477 13.7275 7.83496 12.9461 7.05356C12.1647 6.27216 11.1049 5.83317 9.99983 5.83317ZM9.99983 7.49984C10.3281 7.49978 10.6532 7.56439 10.9566 7.68998C11.2599 7.81557 11.5355 7.99967 11.7677 8.23178C11.9999 8.46388 12.1841 8.73945 12.3098 9.04274C12.4355 9.34604 12.5002 9.67112 12.5002 9.99942C12.5003 10.3277 12.4357 10.6528 12.3101 10.9562C12.1845 11.2595 12.0004 11.5351 11.7683 11.7673C11.5362 11.9995 11.2606 12.1837 10.9573 12.3094C10.654 12.4351 10.329 12.4998 10.0007 12.4998C9.33762 12.4998 8.70174 12.2364 8.2329 11.7676C7.76406 11.2988 7.50066 10.6629 7.50066 9.99984C7.50066 9.3368 7.76406 8.70091 8.2329 8.23207C8.70174 7.76323 9.33762 7.49984 10.0007 7.49984M14.3757 4.58317C14.0994 4.58317 13.8344 4.69292 13.6391 4.88827C13.4437 5.08362 13.334 5.34857 13.334 5.62484C13.334 5.9011 13.4437 6.16606 13.6391 6.36141C13.8344 6.55676 14.0994 6.6665 14.3757 6.6665C14.6519 6.6665 14.9169 6.55676 15.1122 6.36141C15.3076 6.16606 15.4173 5.9011 15.4173 5.62484C15.4173 5.34857 15.3076 5.08362 15.1122 4.88827C14.9169 4.69292 14.6519 4.58317 14.3757 4.58317Z" fill="#F9F6EF"/>
</svg>
