<svg width="65" height="59" viewBox="0 0 65 59" fill="none" xmlns="http://www.w3.org/2000/svg">
<path d="M7.1 58.5L2.4 52.8C5.4 51.4 7.8 49.8333 9.6 48.1C11.4667 46.3 12.4 44.7333 12.4 43.4C12.4 42.4667 12.1 41.6667 11.5 41C10.9 40.2667 10.0667 39.6 9 39C7.53333 37.9333 6.33333 36.8667 5.4 35.8C4.46667 34.7333 4 33.4333 4 31.9C4 29.6333 4.8 27.9 6.4 26.7C8.06667 25.4333 10.1333 24.8 12.6 24.8C14.7333 24.8 16.7 25.4 18.5 26.6C20.3 27.8 21.7333 29.4 22.8 31.4C23.9333 33.4 24.5 35.6667 24.5 38.2C24.5 40.3333 24.0333 42.4333 23.1 44.5C22.1667 46.5 20.8667 48.4333 19.2 50.3C17.6 52.1 15.7667 53.7333 13.7 55.2C11.6333 56.6667 9.43333 57.7667 7.1 58.5ZM32.6 58.5L27.9 52.8C30.9 51.4 33.3 49.8333 35.1 48.1C36.9667 46.3 37.9 44.7333 37.9 43.4C37.9 42.4667 37.6 41.6667 37 41C36.4 40.2667 35.5667 39.6 34.5 39C33.0333 37.9333 31.8333 36.8667 30.9 35.8C29.9667 34.7333 29.5 33.4333 29.5 31.9C29.5 29.6333 30.3 27.9 31.9 26.7C33.5667 25.4333 35.6333 24.8 38.1 24.8C40.2333 24.8 42.2 25.4 44 26.6C45.8 27.8 47.2333 29.4 48.3 31.4C49.4333 33.4 50 35.6667 50 38.2C50 40.3333 49.5333 42.4333 48.6 44.5C47.6667 46.5 46.3667 48.4333 44.7 50.3C43.1 52.1 41.2667 53.7333 39.2 55.2C37.1333 56.6667 34.9333 57.7667 32.6 58.5Z" fill="#AFAFAF" fill-opacity="0.3"/>
</svg>
