<svg width="15" height="15" viewBox="0 0 15 15" fill="none" xmlns="http://www.w3.org/2000/svg">
<path d="M9.375 7.50098C9.375 7.99826 9.17746 8.47517 8.82583 8.8268C8.47419 9.17843 7.99728 9.37598 7.5 9.37598C7.00272 9.37598 6.52581 9.17843 6.17417 8.8268C5.82254 8.47517 5.625 7.99826 5.625 7.50098C5.625 7.0037 5.82254 6.52678 6.17417 6.17515C6.52581 5.82352 7.00272 5.62598 7.5 5.62598C7.99728 5.62598 8.47419 5.82352 8.82583 6.17515C9.17746 6.52678 9.375 7.0037 9.375 7.50098Z" stroke="#CCCCCC" stroke-width="1.5" stroke-linecap="round" stroke-linejoin="round"/>
<path d="M1.25 7.50098C2.25 4.94035 4.585 3.12598 7.5 3.12598C10.415 3.12598 12.75 4.94035 13.75 7.50098C12.75 10.0616 10.415 11.876 7.5 11.876C4.585 11.876 2.25 10.0616 1.25 7.50098Z" stroke="#CCCCCC" stroke-width="1.5" stroke-linecap="round" stroke-linejoin="round"/>
</svg>
